<svg xmlns="http://www.w3.org/2000/svg" width="64" height="72" viewBox="0 0 64 72"><rect width="100%" height="100%" fill="#DDDDDD"/><path fill="#999999" d="m17.415 31.655-2.57 3.15-.3.38q.25-.13.54-.2.29-.07.63-.07.49 0 .95.16.47.17.82.49.36.33.57.82.22.48.22 1.13 0 .61-.22 1.14-.23.53-.63.92-.4.4-.97.63-.56.23-1.25.23t-1.25-.23q-.55-.22-.94-.62-.39-.4-.6-.96-.2-.56-.2-1.24 0-.61.25-1.26.25-.64.77-1.34l2.07-2.78q.11-.14.31-.24.21-.11.48-.11h1.32Zm-2.24 7.56q.36 0 .65-.12.3-.12.51-.33.22-.22.34-.51.12-.29.12-.63 0-.37-.12-.67-.11-.3-.32-.51-.21-.2-.51-.31-.29-.11-.64-.11-.36 0-.65.12-.28.12-.49.34-.2.21-.32.5-.11.29-.11.63 0 .36.1.65.1.3.29.51.2.21.49.33.28.11.66.11Zm5.13-2.15h2.64v-2.84q0-.4.05-.89l-2.69 3.73Zm3.93 0h1.09v.86q0 .12-.08.2-.08.09-.22.09h-.79v2.12h-1.29v-2.12h-3.66q-.15 0-.27-.09-.11-.09-.14-.23l-.16-.75 4.11-5.49h1.41v5.41Zm10.62 1.28-.78.78-2.04-2.04-2.05 2.05-.79-.77 2.06-2.06-1.96-1.96.78-.78 1.96 1.96 1.94-1.95.79.78-1.95 1.95 2.04 2.04Zm4.12-6.69h6v.65q0 .28-.06.46t-.12.3l-3.29 6.77q-.1.21-.29.35-.18.15-.5.15h-1.07l3.35-6.63q.12-.2.23-.37.11-.18.25-.33h-4.15q-.14 0-.24-.1-.11-.11-.11-.24v-1.01Zm10.07 7.3h2.22q.24 0 .38.13.14.14.14.36v.89h-5.95v-.49q0-.15.07-.32.06-.16.2-.29l2.63-2.64q.33-.34.59-.65.26-.3.44-.6.17-.3.26-.61.1-.31.1-.65 0-.31-.09-.55-.09-.24-.26-.4-.16-.16-.39-.24-.24-.08-.52-.08-.27 0-.49.07-.23.08-.4.21-.18.14-.3.32t-.18.39q-.1.28-.26.37-.16.09-.47.04l-.78-.14q.09-.62.35-1.09.26-.47.65-.79.38-.31.88-.47.5-.16 1.08-.16.6 0 1.1.17.5.18.85.51.35.32.55.78.2.45.2 1.01 0 .48-.14.89-.14.41-.38.78-.24.37-.55.72-.32.35-.67.71l-1.96 1.99q.29-.08.57-.12.27-.05.53-.05Z"/></svg>