<svg xmlns="http://www.w3.org/2000/svg" width="405" height="405" viewBox="0 0 405 405"><rect width="100%" height="100%" fill="#DDDDDD"/><path fill="#999999" d="M88.49 207.31h11.88v-12.78q0-1.8.25-3.99l-12.13 16.77Zm17.69 0h4.91v3.86q0 .54-.35.93t-1 .39h-3.56v9.53h-5.81v-9.53H83.9q-.67 0-1.19-.42-.51-.42-.64-1.04l-.71-3.37 18.5-24.71h6.32v24.36Zm36.26-4.81q0 5.1-1.1 8.87-1.09 3.77-3.02 6.22-1.93 2.46-4.56 3.66-2.64 1.2-5.69 1.2-3.05 0-5.65-1.2-2.61-1.2-4.53-3.66-1.91-2.45-2.99-6.22-1.08-3.77-1.08-8.87 0-5.13 1.08-8.88 1.08-3.76 2.99-6.21 1.92-2.46 4.53-3.66 2.6-1.2 5.65-1.2 3.05 0 5.69 1.2 2.63 1.2 4.56 3.66 1.93 2.45 3.02 6.21 1.1 3.75 1.1 8.88Zm-6.89 0q0-4.24-.62-7.02-.62-2.78-1.66-4.43t-2.39-2.31q-1.35-.66-2.81-.66-1.43 0-2.76.66-1.34.66-2.37 2.31-1.02 1.65-1.63 4.43-.61 2.78-.61 7.02t.61 7.02q.61 2.78 1.63 4.43 1.03 1.64 2.37 2.31 1.33.66 2.76.66 1.46 0 2.81-.66 1.35-.67 2.39-2.31 1.04-1.65 1.66-4.43.62-2.78.62-7.02Zm20.58-13.47-1.38 8.12q1.3-.27 2.48-.39 1.19-.12 2.3-.12 3.08 0 5.43.92 2.35.92 3.94 2.54 1.59 1.62 2.4 3.79.81 2.17.81 4.68 0 3.11-1.09 5.67-1.1 2.57-3.04 4.39-1.94 1.82-4.6 2.82-2.66 1-5.79 1-1.84 0-3.49-.38-1.64-.37-3.09-1.01-1.44-.63-2.67-1.46-1.23-.82-2.2-1.74l2.05-2.83q.65-.92 1.7-.92.68 0 1.38.43.7.43 1.6.95.91.51 2.14.94 1.22.43 2.95.43 1.84 0 3.24-.59 1.41-.59 2.34-1.66.93-1.07 1.4-2.54.48-1.47.48-3.2 0-3.19-1.85-4.98-1.85-1.8-5.47-1.8-2.78 0-5.7 1.03l-4.16-1.19 3.24-18.95h19.28v2.83q0 1.43-.89 2.33-.89.89-3.02.89h-10.72Zm60.5 24.05-3.53 3.49-9.16-9.16-9.23 9.21-3.54-3.48 9.24-9.26-8.8-8.81 3.51-3.51 8.8 8.81 8.75-8.75 3.56 3.51-8.78 8.77 9.18 9.18Zm23.39-5.77h11.88v-12.78q0-1.8.24-3.99l-12.12 16.77Zm17.68 0h4.92v3.86q0 .54-.36.93-.35.39-.99.39h-3.57v9.53h-5.8v-9.53h-16.47q-.68 0-1.19-.42-.51-.42-.65-1.04l-.7-3.37 18.49-24.71h6.32v24.36Zm36.26-4.81q0 5.1-1.09 8.87-1.09 3.77-3.03 6.22-1.93 2.46-4.56 3.66-2.63 1.2-5.68 1.2t-5.66-1.2q-2.6-1.2-4.52-3.66-1.92-2.45-3-6.22-1.08-3.77-1.08-8.87 0-5.13 1.08-8.88 1.08-3.76 3-6.21 1.92-2.46 4.52-3.66 2.61-1.2 5.66-1.2 3.05 0 5.68 1.2t4.56 3.66q1.94 2.45 3.03 6.21 1.09 3.75 1.09 8.88Zm-6.88 0q0-4.24-.62-7.02-.62-2.78-1.66-4.43t-2.39-2.31q-1.35-.66-2.81-.66-1.43 0-2.77.66t-2.36 2.31q-1.03 1.65-1.64 4.43-.6 2.78-.6 7.02t.6 7.02q.61 2.78 1.64 4.43 1.02 1.64 2.36 2.31 1.34.66 2.77.66 1.46 0 2.81-.66 1.35-.67 2.39-2.31 1.04-1.65 1.66-4.43.62-2.78.62-7.02Zm20.57-13.47-1.38 8.12q1.3-.27 2.49-.39 1.19-.12 2.29-.12 3.08 0 5.43.92 2.35.92 3.94 2.54 1.6 1.62 2.41 3.79t.81 4.68q0 3.11-1.1 5.67-1.09 2.57-3.04 4.39-1.94 1.82-4.6 2.82-2.66 1-5.79 1-1.84 0-3.48-.38-1.65-.37-3.1-1.01-1.44-.63-2.67-1.46-1.23-.82-2.2-1.74l2.05-2.83q.65-.92 1.7-.92.68 0 1.38.43.7.43 1.61.95.9.51 2.13.94 1.23.43 2.96.43 1.83 0 3.24-.59 1.4-.59 2.33-1.66.93-1.07 1.41-2.54.47-1.47.47-3.2 0-3.19-1.85-4.98-1.85-1.8-5.47-1.8-2.78 0-5.7 1.03l-4.15-1.19 3.24-18.95h19.27v2.83q0 1.43-.89 2.33-.89.89-3.02.89h-10.72Z"/></svg>