<svg xmlns="http://www.w3.org/2000/svg" width="96" height="108" viewBox="0 0 96 108"><rect width="100%" height="100%" fill="#DDDDDD"/><path fill="#999999" d="M20.71 51.83q0 .91.47 1.38.47.48 1.33.48.45 0 .8-.14.35-.14.59-.39t.37-.59q.12-.33.12-.72 0-.45-.13-.8-.14-.34-.39-.59-.24-.24-.58-.36-.35-.13-.75-.13-.42 0-.76.14t-.58.39q-.24.24-.36.58-.13.34-.13.75Zm-.91 7.59 3.37-4.21q.13-.16.24-.3.11-.16.22-.3-.38.23-.83.36-.45.12-.94.12-.57 0-1.11-.19-.54-.2-.96-.59-.42-.39-.67-.98-.26-.58-.26-1.36 0-.72.27-1.36.27-.64.75-1.12.49-.48 1.17-.76.69-.27 1.51-.27.83 0 1.5.26.66.26 1.13.73.47.48.72 1.14.25.66.25 1.44 0 .51-.08.96-.09.45-.25.86-.16.42-.38.82-.23.39-.5.78l-2.49 3.54q-.12.18-.38.31-.25.12-.58.12h-1.7Zm14.27-10.84-3.22 3.93-.38.47q.32-.16.68-.25.37-.08.79-.08.61 0 1.19.2t1.03.61q.44.41.71 1.02.27.61.27 1.42 0 .75-.28 1.42-.28.66-.78 1.16-.5.49-1.21.78-.71.28-1.56.28-.87 0-1.56-.28-.69-.27-1.18-.77t-.75-1.2q-.26-.7-.26-1.56 0-.77.32-1.57.31-.81.96-1.68l2.59-3.47q.13-.18.39-.31.26-.12.6-.12h1.65Zm-2.8 9.44q.44 0 .81-.14.37-.15.64-.42t.42-.64q.15-.36.15-.79 0-.46-.15-.84-.14-.37-.4-.63t-.63-.39q-.37-.13-.81-.13-.44 0-.8.15-.36.15-.62.41-.25.27-.4.63-.14.37-.14.79 0 .44.13.82.12.37.36.63.25.26.61.41.36.14.83.14Zm15.9-1.08-.98.97-2.55-2.55-2.56 2.56-.98-.97 2.56-2.57-2.44-2.44.97-.98 2.45 2.45 2.43-2.44.99.98-2.44 2.44 2.55 2.55Zm10.27 1.09h1.95v1.39h-6v-1.39h2.19v-6.32q0-.37.03-.77l-1.56 1.3q-.14.11-.27.13-.13.03-.25.01-.11-.02-.2-.08-.09-.06-.14-.13l-.58-.8 3.3-2.81h1.53v9.47ZM68.65 54q0 1.42-.3 2.46-.31 1.05-.84 1.73-.54.68-1.27 1.02-.73.33-1.58.33-.85 0-1.57-.33-.73-.34-1.26-1.02-.53-.68-.83-1.73-.3-1.04-.3-2.46 0-1.43.3-2.47.3-1.04.83-1.73.53-.68 1.26-1.01.72-.33 1.57-.33.85 0 1.58.33.73.33 1.27 1.01.53.69.84 1.73.3 1.04.3 2.47Zm-1.91 0q0-1.18-.18-1.95-.17-.77-.46-1.23-.29-.46-.66-.64-.38-.19-.78-.19t-.77.19q-.37.18-.66.64-.28.46-.45 1.23-.17.77-.17 1.95 0 1.17.17 1.95.17.77.45 1.23.29.46.66.64.37.18.77.18t.78-.18q.37-.18.66-.64.29-.46.46-1.23.18-.78.18-1.95Zm6.63 4.09q.46 0 .81-.13.34-.13.58-.36.23-.23.35-.56.12-.32.12-.69 0-.9-.49-1.35-.5-.46-1.37-.46-.87 0-1.36.46-.5.45-.5 1.35 0 .37.12.69.12.33.36.56.24.23.58.36.35.13.8.13Zm0-8.24q-.41 0-.71.13t-.5.34q-.2.21-.29.49-.09.28-.09.58 0 .33.08.63.07.31.26.54.19.24.5.38.3.14.75.14t.76-.14q.31-.14.5-.38.18-.23.26-.54.08-.3.08-.63 0-.3-.1-.58-.09-.28-.29-.49-.19-.21-.49-.34-.3-.13-.72-.13Zm1.83 3.92q.99.32 1.47.98.47.67.47 1.63 0 .72-.27 1.3-.28.58-.77 1-.5.41-1.19.64-.7.22-1.54.22-.84 0-1.53-.22-.69-.23-1.19-.64-.49-.42-.77-1-.27-.58-.27-1.3 0-.96.47-1.63.47-.66 1.46-.98-.78-.33-1.18-.94-.39-.61-.39-1.46 0-.62.25-1.15.25-.53.7-.93.45-.39 1.08-.61.62-.22 1.37-.22.75 0 1.38.22.63.22 1.08.61.45.4.7.93.25.53.25 1.15 0 .85-.39 1.46-.4.61-1.19.94Z"/></svg>