<svg id="Layer_2" height="512" viewBox="0 0 32 32" width="512" xmlns="http://www.w3.org/2000/svg" data-name="Layer 2">
  <path fill="#7547c4" d="m19.10815 23.14777h-12.69677a3.41526 3.41526 0 0 1 -3.41132-3.41132v-11.40375a3.41521 3.41521 0 0 1 3.41132-3.41131h19.09155a3.415 3.415 0 0 1 3.41034 3.41131v10.90082a1 1 0 1 0 2.00006 0v-10.90082a5.41708 5.41708 0 0 0 -5.4104-5.41137h-19.09155a5.4176 5.4176 0 0 0 -5.41138 5.41137v11.40375a5.41761 5.41761 0 0 0 5.41138 5.41138h12.69677a1 1 0 1 0 0-2.00006z"/>
  <path fill="#7547c4" d="m25.22266 7.30432h-13.55866a1 1 0 1 0 0 2.00006h13.55866a1 1 0 1 0 0-2.00006z"/>
  <path fill="#7547c4" d="m26.22272 12.912a.99945.99945 0 0 0 -1.00006-1.00006h-18.13745a1 1 0 1 0 0 2.00006h18.13745a.99944.99944 0 0 0 1.00006-1z"/>
  <path fill="#7547c4" d="m8.897 8.30389a1.10275 1.10275 0 1 0 -1.10269 1.10273 1.10274 1.10274 0 0 0 1.10269-1.10273z"/>
  <path fill="#7547c4" d="m6.69165 16.51953a1 1 0 1 0 0 2.00006h9.265a1 1 0 1 0 0-2.00006z"/>
  <path fill="#7547c4" d="m25.2373 19.45422a1.77294 1.77294 0 0 0 -.7246-.4375l-1.97864-.61334a1.76446 1.76446 0 0 0 -2.20906 2.20715l.61524 1.98346a1.79951 1.79951 0 0 0 .43658.72174l5.24629 5.24527a1.76367 1.76367 0 0 0 2.49524.001l1.36627-1.36529.001-.001a1.76773 1.76773 0 0 0 -.001-2.4942zm2.63392 7.52668-5.03822-5.03827-.465-1.49616 1.49616.46289 5.0393 5.03925z"/>
</svg>
