<svg id="Layer_1" enable-background="new 0 0 501.264 501.264" height="512" viewBox="0 0 501.264 501.264" width="512" xmlns="http://www.w3.org/2000/svg"><g><path fill="#7547c4" d="m240.051 120.051h-30v32.58c-17.459 6.192-30 22.865-30 42.42 0 24.813 20.186 45 45 45 8.271 0 15 6.729 15 15s-6.729 15-15 15h-45v30h30v30h30v-32.58c17.459-6.192 30-22.865 30-42.42 0-24.813-20.186-45-45-45-8.271 0-15-6.729-15-15s6.729-15 15-15h45v-30h-30z"/><path fill="#7547c4" d="m433.23 369.592 28.883-28.885-38.163-10.408c44.552-84.02 32.641-191.905-39.801-264.347-87.93-87.93-230.256-87.942-318.197 0-87.931 87.931-87.941 230.257 0 318.198 72.455 72.453 180.349 84.342 264.347 39.8l10.408 38.163 28.885-28.883 68.032 68.033 63.64-63.639zm-208.179 50.459c-107.523 0-195-87.477-195-195s87.477-195 195-195 195 87.477 195 195c0 34.301-8.921 67.654-25.887 97.125l-30.125-8.216c16.887-26.397 26.012-57.248 26.012-88.909 0-90.981-74.019-165-165-165s-165 74.019-165 165 74.019 165 165 165c31.661 0 62.512-9.125 88.909-26.012l8.216 30.125c-29.471 16.967-62.826 25.887-97.125 25.887zm108.332-114.451-38.202-10.419 10.419 38.202c-23.194 17.255-51.453 26.668-80.549 26.668-74.439 0-135-60.56-135-135 0-74.439 60.561-135 135-135s135 60.561 135 135c0 29.095-9.413 57.354-26.668 80.549zm36.209 85.205-13.543 13.543-18.112-66.411 66.411 18.112-13.543 13.543 68.033 68.033-21.214 21.213z"/></g></svg>